<?xml version="1.0" standalone="no"?>
<!DOCTYPE svg PUBLIC "-//W3C//DTD SVG 20010904//EN"
 "http://www.w3.org/TR/2001/REC-SVG-20010904/DTD/svg10.dtd">
<svg version="1.0" xmlns="http://www.w3.org/2000/svg"
 width="1000.000000pt" height="1000.000000pt" viewBox="0 0 1000.000000 1000.000000"
 preserveAspectRatio="xMidYMid meet">
<metadata>
Created by potrace 1.14, written by Peter Selinger 2001-2017
</metadata>
<g transform="translate(0.000000,1000.000000) scale(0.100000,-0.100000)"
fill="#000000" stroke="none">
<path d="M2136 7988 c-44 -9 -102 -39 -138 -71 -26 -25 -83 -107 -73 -107 3 0
0 -10 -7 -22 -10 -18 -13 -350 -13 -1625 -1 -1435 1 -1603 15 -1604 8 0 42 0
75 0 33 1 66 1 73 1 6 0 42 0 80 0 37 0 85 0 107 -1 22 -1 46 -1 53 0 20 2 40
1 75 -1 17 -2 42 0 55 4 12 4 22 4 22 0 0 -6 20 -7 76 -3 8 1 10 158 10 537
-1 295 3 538 7 541 12 7 144 6 156 -1 6 -4 11 -3 11 2 0 6 14 7 35 2 19 -4 37
-5 39 -1 2 3 28 5 58 3 29 -1 62 -2 73 -1 34 2 49 2 80 0 17 -1 98 -1 182 0
83 0 156 -2 162 -6 6 -3 11 -2 11 3 0 6 14 7 35 2 19 -4 37 -5 39 -1 2 3 28 5
58 3 29 -1 62 -2 73 -1 34 1 49 2 80 0 17 -1 67 -1 113 -1 45 1 86 -2 91 -5 5
-3 12 -2 14 2 6 9 132 7 147 -2 6 -3 10 -3 10 2 0 9 123 8 146 -1 7 -3 15 -2
18 2 5 8 132 6 146 -3 6 -3 10 -3 10 2 0 9 172 8 195 -1 8 -3 16 -2 19 2 2 4
28 6 58 4 29 -1 62 -2 73 -1 35 2 49 2 80 0 17 -1 62 -1 102 0 39 1 76 -2 82
-5 6 -4 11 -3 11 2 0 6 14 7 35 2 19 -4 37 -5 39 -1 2 3 28 5 58 3 29 -1 62
-2 73 -1 35 2 49 2 80 0 17 -1 62 -1 102 0 39 1 76 -2 82 -5 6 -4 11 -3 11 2
0 6 14 7 34 2 19 -4 38 -5 41 -2 7 7 242 5 254 -3 5 -3 12 -2 14 2 6 9 132 7
147 -2 6 -3 10 -3 10 2 0 9 123 8 146 -1 7 -3 15 -2 18 2 5 8 132 6 146 -3 6
-3 10 -3 10 2 0 9 262 8 286 -1 7 -3 14 -1 14 3 0 5 16 5 35 1 19 -4 37 -5 39
-1 2 3 28 5 58 3 29 -1 62 -2 73 -1 34 1 49 2 80 0 17 -1 74 -1 128 -1 l97 0
0 320 0 320 -82 0 c-124 1 -171 -1 -179 -6 -4 -2 -10 0 -14 6 -4 6 -11 8 -16
4 -6 -3 -42 -5 -82 -5 -40 0 -101 0 -137 0 -66 -1 -90 0 -112 2 -7 0 -65 0
-128 0 -63 0 -122 0 -130 0 -8 0 -42 0 -75 -1 -33 -1 -64 -1 -70 0 -5 1 -14 2
-20 1 -8 -2 -283 -1 -320 0 -5 1 -37 0 -70 -1 -33 -1 -64 -1 -70 0 -5 1 -14 2
-20 1 -8 -2 -283 -1 -320 0 -5 1 -37 0 -70 -1 -33 -1 -64 -1 -70 0 -5 1 -14 2
-20 1 -8 -2 -283 -1 -320 0 -5 1 -37 0 -70 -1 -33 -1 -64 -1 -70 0 -5 1 -14 2
-20 1 -8 -2 -283 -1 -320 0 -5 1 -37 0 -70 -1 -33 -1 -64 -1 -70 0 -5 1 -14 2
-20 1 -5 -1 -89 -2 -185 -1 -96 0 -203 0 -238 1 -34 0 -67 -3 -72 -6 -5 -3
-11 -1 -15 5 -4 6 -11 8 -16 4 -6 -3 -42 -5 -82 -5 -40 0 -101 0 -137 0 -65
-1 -88 0 -112 2 -15 1 -160 0 -227 -1 -25 -1 -48 -3 -52 -6 -4 -2 -10 0 -14 6
-4 6 -11 8 -16 4 -6 -3 -42 -5 -82 -5 -40 0 -101 0 -137 0 -36 0 -74 0 -85 0
-11 0 -36 1 -55 1 l-35 -1 1 528 c1 291 2 533 3 538 1 7 725 10 2259 10 l2257
0 3 320 2 320 -2449 0 c-1347 0 -2465 -3 -2485 -7z"/>
<path d="M7454 6286 c0 -1205 3 -1716 10 -1717 6 -1 151 -2 321 -3 l311 -1 -1
1610 c-1 1572 -2 1611 -21 1650 -33 70 -80 117 -144 148 -41 20 -64 22 -261
25 l-215 3 0 -1715z"/>
<path d="M298 5754 c-67 -13 -138 -48 -179 -88 -37 -36 -93 -116 -82 -116 4 0
3 -4 -2 -8 -32 -22 -35 -88 -32 -647 l2 -560 26 -55 c22 -47 83 -120 130 -155
27 -21 110 -55 119 -50 5 3 11 2 14 -3 3 -5 71 -9 151 -9 81 -1 149 -4 153 -7
9 -9 9 -14 27 -256 3 -36 8 -90 11 -120 9 -86 11 -119 19 -216 3 -51 8 -105
10 -120 2 -16 6 -68 10 -117 3 -48 8 -95 10 -105 13 -68 19 -289 20 -674 l0
-448 133 0 c118 0 133 2 138 18 3 9 10 26 15 37 8 18 65 175 73 200 2 6 6 17
9 25 15 40 49 136 52 145 1 6 5 17 8 25 3 8 29 80 57 160 28 80 56 159 63 175
6 17 12 32 12 35 0 3 6 14 12 24 10 19 76 19 3723 20 2464 1 3714 -2 3719 -9
8 -11 58 -150 62 -173 0 -4 5 -15 11 -25 5 -10 11 -26 13 -35 3 -15 95 -268
112 -312 4 -8 7 -17 7 -20 1 -5 40 -113 54 -150 3 -8 6 -17 7 -20 1 -3 5 -14
9 -25 5 -11 14 -36 21 -55 l13 -35 133 0 132 0 3 480 c1 264 5 495 8 513 3 19
8 68 11 110 3 43 7 96 10 119 2 23 7 77 10 120 3 43 7 98 10 123 3 25 8 72 10
105 2 33 5 60 5 60 1 0 3 23 5 50 3 55 14 180 20 235 2 19 5 57 6 83 1 27 7
51 13 53 6 2 81 6 166 8 130 3 162 7 200 24 74 34 128 79 166 138 66 103 65
94 62 707 l-3 552 -33 67 c-53 108 -141 177 -257 203 -33 7 -232 10 -574 10
l-525 -1 0 -852 c0 -593 -3 -852 -10 -853 -6 0 -1629 -1 -3606 -1 l-3595 -1 0
851 c0 561 -3 852 -10 853 -5 0 -240 2 -522 2 -329 1 -531 -2 -565 -9z"/>
</g>
</svg>
